name C:/MyDriveSym/Projects/mobilecap/Data\Session20210816_0002\mocap\ForceDataProcessed\walking1_forces.mot
datacolumns 19
datarows 14
range 0.32950000 0.33600000
endheader 
time	R_ground_force_vx	R_ground_force_vy	R_ground_force_vz	R_ground_force_px	R_ground_force_py	R_ground_force_pz	R_ground_torque_x	R_ground_torque_y	R_ground_torque_z	L_ground_force_vx	L_ground_force_vy	L_ground_force_vz	L_ground_force_px	L_ground_force_py	L_ground_force_pz	L_ground_torque_x	L_ground_torque_y	L_ground_torque_z	
          0.32950000	        -29.30971500	        536.92153300	         -9.01012800	          0.26328500	          0.00600000	         -0.22767000	          0.00000000	         -0.47187500	          0.00000000	          0.00000000	          0.00000000	          0.00000000	          0.77778800	          0.00000000	         -0.25416500	          0.00000000	          0.00000000	          0.00000000	
          0.33000000	        -29.14504000	        536.70464200	         -8.99554200	          0.26345900	          0.00600000	         -0.22763300	          0.00000000	         -0.48562000	          0.00000000	          0.00000000	          0.00000000	          0.00000000	          0.77778800	          0.00000000	         -0.25416500	          0.00000000	          0.00000000	          0.00000000	
          0.33050000	        -28.98014900	        536.49187400	         -8.98120700	          0.26363300	          0.00600000	         -0.22759600	          0.00000000	         -0.49936600	          0.00000000	          0.00000000	          0.00000000	          0.00000000	          0.77778800	          0.00000000	         -0.25416500	          0.00000000	          0.00000000	          0.00000000	
          0.33100000	        -28.81503400	        536.28325000	         -8.96712100	          0.26380600	          0.00600000	         -0.22755900	          0.00000000	         -0.51311200	          0.00000000	          0.00000000	          0.00000000	          0.00000000	          0.77778800	          0.00000000	         -0.25416500	          0.00000000	          0.00000000	          0.00000000	
          0.33150000	        -28.64968700	        536.07879000	         -8.95328700	          0.26397800	          0.00600000	         -0.22752300	          0.00000000	         -0.52685700	          0.00000000	          0.00000000	          0.00000000	          0.00000000	          0.77778800	          0.00000000	         -0.25416500	          0.00000000	          0.00000000	          0.00000000	
          0.33200000	        -28.48410200	        535.87851500	         -8.93970300	          0.26414900	          0.00600000	         -0.22748700	          0.00000000	         -0.54060100	          0.00000000	          0.00000000	          0.00000000	          0.00000000	          0.77778800	          0.00000000	         -0.25416500	          0.00000000	          0.00000000	          0.00000000	
          0.33250000	        -28.31827200	        535.68244400	         -8.92637000	          0.26432000	          0.00600000	         -0.22745100	          0.00000000	         -0.55434400	          0.00000000	          0.00000000	          0.00000000	          0.00000000	          0.77778800	          0.00000000	         -0.25416500	          0.00000000	          0.00000000	          0.00000000	
          0.33300000	        -28.15218800	        535.49059700	         -8.91328900	          0.26449000	          0.00600000	         -0.22741500	          0.00000000	         -0.56808500	          0.00000000	          0.00000000	          0.00000000	          0.00000000	          0.77778800	          0.00000000	         -0.25416500	          0.00000000	          0.00000000	          0.00000000	
          0.33350000	        -27.98584400	        535.30299500	         -8.90045800	          0.26465900	          0.00600000	         -0.22737900	          0.00000000	         -0.58182500	          0.00000000	          0.00000000	          0.00000000	          0.00000000	          0.77778800	          0.00000000	         -0.25416500	          0.00000000	          0.00000000	          0.00000000	
          0.33400000	        -27.81923300	        535.11965800	         -8.88788000	          0.26482800	          0.00600000	         -0.22734400	          0.00000000	         -0.59556300	          0.00000000	          0.00000000	          0.00000000	          0.00000000	          0.77778800	          0.00000000	         -0.25416500	          0.00000000	          0.00000000	          0.00000000	
          0.33450000	        -27.65234700	        534.94060400	         -8.87555300	          0.26499600	          0.00600000	         -0.22730800	          0.00000000	         -0.60929800	          0.00000000	          0.00000000	          0.00000000	          0.00000000	          0.77778800	          0.00000000	         -0.25416500	          0.00000000	          0.00000000	          0.00000000	
          0.33500000	        -27.48517900	        534.76585500	         -8.86347900	          0.26516300	          0.00600000	         -0.22727300	          0.00000000	         -0.62303000	          0.00000000	          0.00000000	          0.00000000	          0.00000000	          0.77778800	          0.00000000	         -0.25416500	          0.00000000	          0.00000000	          0.00000000	
          0.33550000	        -27.31772300	        534.59542900	         -8.85165700	          0.26533000	          0.00600000	         -0.22723800	          0.00000000	         -0.63675900	          0.00000000	          0.00000000	          0.00000000	          0.00000000	          0.77778800	          0.00000000	         -0.25416500	          0.00000000	          0.00000000	          0.00000000	
          0.33600000	        -27.14996900	        534.42934600	         -8.84008800	          0.26549600	          0.00600000	         -0.22720400	          0.00000000	         -0.65048400	          0.00000000	          0.00000000	          0.00000000	          0.00000000	          0.77778800	          0.00000000	         -0.25416500	          0.00000000	          0.00000000	          0.00000000	
